<?xml version="1.0" encoding="utf-8"?>
<!-- Generator: Adobe Illustrator 16.0.0, SVG Export Plug-In . SVG Version: 6.00 Build 0)  -->
<!DOCTYPE svg PUBLIC "-//W3C//DTD SVG 1.1//EN" "http://www.w3.org/Graphics/SVG/1.1/DTD/svg11.dtd">
<svg version="1.1" id="Capa_1" xmlns="http://www.w3.org/2000/svg" xmlns:xlink="http://www.w3.org/1999/xlink" x="0px" y="0px"
	 width="512px" height="512px" viewBox="-8 -8 512 512" enable-background="new -8 -8 512 512" xml:space="preserve">
<g>
	<path fill="#B5E5F7" d="M25.307,205.742h98.419v98.419H25.307V205.742z"/>
	<path fill="#B5E5F7" d="M25.307,345.169h98.419v98.42H25.307V345.169z"/>
	<path fill="#B5E5F7" d="M238.548,156.532H25.307V74.516h213.242V156.532z"/>
</g>
<path fill="#F4F4F4" d="M353.888,254.952c4.874,0,9.587,1.425,13.647,4.132l57.279,38.189c6.769,4.501,14.633,6.888,22.751,6.888
	H501v-16.403h-53.427c-4.869,0-9.596-1.425-13.655-4.133l-23.136-15.426V-7.5H99.121V41.71H-7.5V501h311.661v-49.209h106.621V382.79
	c0.517-0.124,1.049-0.165,1.565-0.289l38.153-9.535c8.466-2.118,17.176-3.191,25.894-3.191H501v-16.403h-24.605
	c-10.055,0-20.11,1.237-29.87,3.677l-38.153,9.535c-19.61,4.897-40.482,4.101-59.642-2.287l-13.819-4.609
	c-12.584-4.193-25.687-6.315-38.95-6.315h-71.568c0-13.564,11.041-24.604,24.605-24.604h90.218
	c13.567,0,24.604-11.041,24.604-24.605c0-12.583-9.531-22.866-21.726-24.316l6.732-24.893H353.888z M343.527,379.854
	c12.583,4.202,25.69,6.324,38.95,6.324c3.98,0,7.949-0.345,11.901-0.729v49.938h-90.218V408.56c2.88-3.319,5.11-7.249,6.308-11.693
	l6.716-24.878c4.226,0.861,8.414,1.887,12.526,3.265L343.527,379.854z M300.75,369.963l-6.112,22.618c-1.59,5.892-6.96,10-13.055,10
	h-2.659c-7.453,0-13.516-6.06-13.516-13.517c0-1.197,0.155-2.379,0.469-3.528l4.256-15.762h25.827
	C297.558,369.775,299.151,369.899,300.75,369.963z M253.137,369.775l-3.099,11.473c-0.689,2.544-1.033,5.166-1.033,7.817
	c0,11.09,6.135,20.677,15.117,25.843l-2.575,10.284l15.911,3.98l2.551-10.188h1.574c2.114,0,4.165-0.296,6.175-0.721v66.334H8.903
	V58.113h106.621V8.904h278.855v248.363l-17.74-11.83c-6.764-4.501-14.629-6.888-22.751-6.888h-0.633l34.136-126.296
	c0.689-2.543,1.033-5.166,1.033-7.817c0-16.499-13.424-29.919-29.919-29.919h-2.659c-13.487,0-25.365,9.095-28.886,22.118
	l-22.799,84.363V41.71H131.928v16.403h155.83v180.436H270.79c-8.927,0-17.332,2.959-24.36,8.202h-81.696v16.403h64.463
	l-16.403,16.403h-48.06v16.403h31.665l-13.704,13.704c-4.837,4.829-7.505,11.261-7.505,18.109c0,14.116,11.481,25.598,25.606,25.598
	c2.527,0,4.962-0.484,7.324-1.189c-0.008,0.4-0.124,0.78-0.124,1.189c0,9.047,7.357,16.403,16.403,16.403H253.137z M316.315,312.364
	h-30.663l34.632-128.143l28.134,9.375L316.315,312.364z M253.394,262.153c4.586-4.578,10.925-7.2,17.396-7.2h13.384l-6.692,24.753
	c-10.376,0.376-20.103,4.477-27.483,11.857l-42.707,42.706c-1.714,1.714-4.084,2.699-6.503,2.699c-5.078,0-9.203-4.125-9.203-9.194
	c0-2.459,0.961-4.766,2.699-6.504L253.394,262.153z M261.596,303.16c3.1-3.1,7.044-5.214,11.253-6.315l-4.192,15.519H252.4
	L261.596,303.16z M371.553,107.971l-10.044,37.16l-28.134-9.375l9.416-34.837c1.598-5.891,6.964-10,13.055-10h2.659
	c7.456,0,13.516,6.059,13.516,13.516C372.021,105.633,371.865,106.814,371.553,107.971z M329.095,151.618l28.133,9.375
	l-4.529,16.739l-28.133-9.375L329.095,151.618z M339.215,295.96c4.521,0,8.201,3.685,8.201,8.201c0,4.518-3.68,8.202-8.201,8.202
	h-5.911l4.437-16.403H339.215z"/>
<path fill="#F4F4F4" d="M58.113,107.323h16.403v16.404H58.113V107.323z"/>
<path fill="#F4F4F4" d="M90.919,107.323h16.403v16.404H90.919V107.323z"/>
<path fill="#F4F4F4" d="M123.726,107.323h16.403v16.404h-16.403V107.323z"/>
<path fill="#F4F4F4" d="M156.532,107.323h16.403v16.404h-16.403V107.323z"/>
<path fill="#F4F4F4" d="M189.339,107.323h16.403v16.404h-16.403V107.323z"/>
<path fill="#F4F4F4" d="M162.331,186.936l-11.598-11.598l-76.217,76.217l-10.604-10.604l-11.597,11.598l22.202,22.202
	L162.331,186.936z"/>
<path fill="#F4F4F4" d="M150.733,314.766l-76.217,76.217l-10.604-10.604l-11.597,11.597l22.202,22.203l87.815-87.815
	L150.733,314.766z"/>
<path fill="#F4F4F4" d="M254.952,443.589h16.403v16.403h-16.403V443.589z"/>
<path fill="#F4F4F4" d="M148.331,443.589h90.218v16.403h-90.218V443.589z"/>
<path fill="#F4F4F4" d="M164.734,213.944h106.622v16.403H164.734V213.944z"/>
</svg>
