<?xml version="1.0" encoding="utf-8"?>
<!-- Generator: Adobe Illustrator 16.0.0, SVG Export Plug-In . SVG Version: 6.00 Build 0)  -->
<!DOCTYPE svg PUBLIC "-//W3C//DTD SVG 1.1//EN" "http://www.w3.org/Graphics/SVG/1.1/DTD/svg11.dtd">
<svg version="1.1" id="Layer_1" xmlns="http://www.w3.org/2000/svg" xmlns:xlink="http://www.w3.org/1999/xlink" x="0px" y="0px"
	 width="512px" height="512px" viewBox="27.465 140.85 512 512" enable-background="new 27.465 140.85 512 512"
	 xml:space="preserve">
<path fill="#B5E5F7" d="M489.885,504.18H27.465V140.85h462.42V504.18z"/>
<g>
	<polygon fill="#F4F4F4" points="321.209,420.111 311.745,406.584 384.651,355.545 311.745,304.506 321.209,290.98 413.453,355.545 
			"/>
	<polygon fill="#F4F4F4" points="196.141,420.111 103.896,355.545 196.141,290.98 205.604,304.506 132.698,355.545 205.604,406.584 
			"/>
	
		<rect x="154.217" y="347.284" transform="matrix(0.3165 -0.9486 0.9486 0.3165 -160.4608 488.3799)" fill="#F4F4F4" width="208.899" height="16.506"/>
	<path fill="#F4F4F4" d="M498.143,256.455h-8.258v16.515h8.258c13.658,0,24.771,11.114,24.771,24.772V537.21H77.01v-33.03H60.495
		v57.803c0,22.766,18.521,41.287,41.288,41.287h82.575v33.029h-33.03v16.516h33.03h231.21h33.03v-16.516h-33.03V603.27h82.575
		c22.766,0,41.287-18.521,41.287-41.287v-264.24C539.43,274.976,520.908,256.455,498.143,256.455z M399.052,636.299h-198.18V603.27
		h198.18V636.299z M498.143,586.755h-82.575h-231.21h-82.575c-13.659,0-24.772-11.115-24.772-24.772v-8.259h445.904v8.259
		C522.914,575.64,511.801,586.755,498.143,586.755z"/>
	<rect x="43.98" y="157.365" fill="#F4F4F4" width="16.515" height="16.515"/>
	<rect x="77.01" y="157.365" fill="#F4F4F4" width="16.515" height="16.515"/>
	<rect x="110.04" y="157.365" fill="#F4F4F4" width="16.515" height="16.515"/>
	<rect x="27.465" y="190.395" fill="#F4F4F4" width="462.42" height="16.515"/>
</g>
</svg>
