<?xml version="1.0" encoding="utf-8"?>
<!-- Generator: Adobe Illustrator 16.0.0, SVG Export Plug-In . SVG Version: 6.00 Build 0)  -->
<!DOCTYPE svg PUBLIC "-//W3C//DTD SVG 1.1//EN" "http://www.w3.org/Graphics/SVG/1.1/DTD/svg11.dtd">
<svg version="1.1" id="Capa_1" xmlns="http://www.w3.org/2000/svg" xmlns:xlink="http://www.w3.org/1999/xlink" x="0px" y="0px"
	 width="208px" height="53.79px" viewBox="170.25 45.25 208 53.79" enable-background="new 170.25 45.25 208 53.79"
	 xml:space="preserve">
<g>
	<path fill="#5B5B5F" d="M217.665,79.742c-0.508,0.909-0.971,1.738-1.376,2.47c-0.392-0.256-0.741-0.636-1.041-1.202l-13.522-24.7
		c-0.724-1.363-2.048-2.158-3.592-2.158h-21.621c-1.556,0-2.728-1.253-2.728-2.792h26.024c1.544,0,2.868,0.795,3.593,2.158
		l12.753,23.485l-0.005,0.012L217.665,79.742L217.665,79.742z M202.791,79.768c-0.506,0.901-0.966,1.725-1.367,2.45
		c-0.396-0.256-0.748-0.638-1.051-1.209c-0.574-1.079-6.018-10.845-6.72-11.815c-0.768-1.061-1.775-1.835-3.372-1.835h-6.748
		c-1.556,0-2.728-1.252-2.728-2.791h11.151c1.543,0,2.867,0.794,3.592,2.158l0.892,1.676L202.791,79.768L202.791,79.768z
		 M196.297,57.963c1.513,0.206,2.208,1.377,2.378,2.792h-18.652c-1.556,0-2.727-1.253-2.727-2.792H196.297L196.297,57.963z"/>
	<path fill="#0087CA" d="M232.814,52.775c0.94-1.786,2.365-1.737,4.07-1.745c-3.653,6.649-13.262,23.207-16.782,29.898
		c-0.94,1.784-2.34,1.681-3.806,1.287C220,75.524,229.111,59.467,232.814,52.775L232.814,52.775z M205.249,80.954
		c-0.94,1.784-2.053,1.736-3.797,1.27c3.653-6.649,12.988-22.731,16.508-29.423c0.94-1.785,2.365-1.736,4.07-1.744
		C218.327,57.75,208.952,74.262,205.249,80.954L205.249,80.954z"/>
	<g enable-background="new    ">
		<path fill="#5B5A5D" d="M244.856,54.284c0-0.347,0.122-0.641,0.367-0.881c0.245-0.24,0.547-0.36,0.909-0.36h17.093
			c0,1.548-0.735,2.322-2.204,2.322h-13.651v10.209h11.215c0,1.575-0.735,2.362-2.204,2.362h-9.011v11.009
			c0,0.828-0.212,1.448-0.638,1.862s-1.051,0.621-1.875,0.621V54.284z"/>
		<path fill="#5B5A5D" d="M269.083,80.027c-0.838-0.934-1.257-2.228-1.257-3.883v-21.26c0-1.468,0.76-2.202,2.282-2.202v23.422
			c0,1.147,0.219,1.962,0.658,2.442c0.438,0.48,1.16,0.72,2.166,0.72c0.851,0,1.675-0.239,2.475-0.72
			c0.18,0.32,0.271,0.654,0.271,1.001c0,0.507-0.277,0.947-0.832,1.32c-0.555,0.374-1.244,0.562-2.069,0.562
			C271.152,81.43,269.921,80.963,269.083,80.027z"/>
		<path fill="#5B5A5D" d="M278.21,88.896c-0.349-0.335-0.535-0.821-0.562-1.462c0.387,0.08,0.864,0.12,1.431,0.12
			c1.238,0,2.25-0.38,3.036-1.141s1.541-2.076,2.263-3.943l0.851-2.042l-7.695-19.499c0.31-0.16,0.67-0.24,1.082-0.24
			c0.361,0,0.703,0.114,1.025,0.34c0.321,0.227,0.561,0.541,0.716,0.941l5.878,15.455l-0.542,1.401l0.193,0.08l6.497-16.936
			c0.31-0.854,0.876-1.281,1.701-1.281c0.412,0,0.773,0.08,1.083,0.24l-8.778,22.22c-0.825,2.136-1.772,3.71-2.843,4.725
			c-1.069,1.014-2.378,1.521-3.925,1.521C279.027,89.396,278.558,89.229,278.21,88.896z"/>
		<path fill="#5B5A5D" d="M302.67,79.748l-5.222-18.858c0.388-0.133,0.709-0.2,0.967-0.2c0.852,0,1.393,0.427,1.624,1.281
			l3.983,15.134l-0.348,1.32l0.154,0.081l4.757-16.976c0.155-0.561,0.516-0.841,1.083-0.841c0.258,0,0.489,0.08,0.696,0.24
			c0.206,0.16,0.335,0.36,0.387,0.601l4.331,15.575l-0.348,1.32l0.154,0.081l4.37-16.536c0.231-0.854,0.786-1.281,1.662-1.281
			c0.258,0,0.58,0.067,0.967,0.2l-5.259,18.858c-0.155,0.533-0.42,0.947-0.793,1.241c-0.374,0.293-0.818,0.44-1.334,0.44
			l-5.144-18.137l-0.116,0.04l0.31,1.241l-4.718,16.856C303.7,81.43,302.979,80.868,302.67,79.748z"/>
		<path fill="#5B5A5D" d="M326.22,79.607c-1.366-1.214-2.05-2.836-2.05-4.864c0-2.056,0.684-3.689,2.05-4.905
			c1.366-1.214,3.223-1.822,5.569-1.822c2.654,0,4.769,0.988,6.342,2.963l0.116-0.08c-0.207-0.32-0.464-0.641-0.773-0.961v-2.362
			c0-1.521-0.452-2.695-1.354-3.523c-0.903-0.827-2.179-1.241-3.829-1.241c-2.913,0-4.949,1.255-6.109,3.764
			c-0.31-0.24-0.556-0.521-0.735-0.841c-0.181-0.32-0.271-0.627-0.271-0.921c0-0.667,0.349-1.321,1.044-1.962
			c0.696-0.641,1.599-1.161,2.707-1.562s2.243-0.601,3.403-0.601c2.294,0,4.105,0.615,5.434,1.842
			c1.327,1.228,1.991,2.91,1.991,5.044v11.611c0,1.495-0.761,2.242-2.281,2.242v-2.082c0.464-0.48,0.747-0.827,0.851-1.041
			l-0.116-0.12c-0.825,1.041-1.798,1.841-2.919,2.402c-1.122,0.56-2.34,0.841-3.655,0.841
			C329.392,81.43,327.586,80.822,326.22,79.607z M335.984,78.105c1.044-0.826,1.566-1.947,1.566-3.362
			c0-1.414-0.51-2.536-1.527-3.363c-1.02-0.827-2.417-1.241-4.196-1.241c-1.676,0-2.984,0.407-3.925,1.221
			c-0.941,0.814-1.411,1.942-1.411,3.383s0.464,2.569,1.392,3.383c0.928,0.814,2.217,1.222,3.867,1.222
			C333.529,79.348,334.94,78.934,335.984,78.105z"/>
		<path fill="#5B5A5D" d="M350.216,63.493c-0.762,0.427-1.36,1.008-1.799,1.742c-0.438,0.734-0.657,1.528-0.657,2.382v11.611
			c0,1.468-0.761,2.202-2.282,2.202V62.972c0-1.521,0.748-2.282,2.243-2.282v2.482c-0.361,0.427-0.632,0.801-0.812,1.121l0.115,0.16
			c1.702-2.508,3.777-3.764,6.227-3.764c0.747,0,1.359,0.18,1.837,0.541c0.477,0.36,0.716,0.794,0.716,1.301
			c0,0.294-0.091,0.601-0.271,0.921c-0.772-0.4-1.715-0.601-2.822-0.601C351.807,62.852,350.976,63.066,350.216,63.493z"/>
		<path fill="#5B5A5D" d="M362.01,80.528c-1.174-0.601-2.088-1.441-2.746-2.522c-0.657-1.081-0.986-2.315-0.986-3.703v-6.366
			c0-1.361,0.342-2.589,1.025-3.684c0.683-1.094,1.617-1.962,2.804-2.603c1.186-0.641,2.5-0.961,3.944-0.961
			c1.418,0,2.72,0.314,3.906,0.941c1.186,0.627,2.12,1.495,2.803,2.603c0.684,1.108,1.025,2.329,1.025,3.664v2.762
			c0,0.294-0.116,0.554-0.348,0.781c-0.232,0.227-0.49,0.34-0.774,0.34H360.56v2.482c0,1.575,0.477,2.81,1.431,3.703
			c0.953,0.895,2.308,1.342,4.061,1.342s3.113-0.414,4.08-1.241s1.45-1.962,1.45-3.403c0.464,0,0.883,0.174,1.257,0.521
			c0.373,0.347,0.561,0.747,0.561,1.201c0,0.854-0.348,1.675-1.044,2.462c-0.696,0.788-1.605,1.415-2.727,1.882
			s-2.314,0.701-3.577,0.701C364.529,81.43,363.183,81.129,362.01,80.528z M371.542,69.698v-1.801c0-1.495-0.51-2.716-1.527-3.664
			c-1.019-0.947-2.34-1.421-3.964-1.421s-2.945,0.474-3.964,1.421c-1.019,0.948-1.527,2.169-1.527,3.664v1.801H371.542z"/>
	</g>
	<g enable-background="new    ">
		<path fill="#5B5B5F" d="M350.959,94.415h4.271v0.554h-4.92v-9.007h0.649V94.415z"/>
		<path fill="#5B5B5F" d="M360.557,94.969c-0.127,0-0.206-0.06-0.235-0.179l-0.089-0.808c-0.174,0.169-0.347,0.322-0.519,0.458
			s-0.352,0.25-0.538,0.344c-0.188,0.094-0.388,0.164-0.604,0.213s-0.454,0.073-0.713,0.073c-0.217,0-0.427-0.031-0.63-0.096
			c-0.204-0.063-0.385-0.161-0.542-0.293c-0.156-0.131-0.282-0.3-0.378-0.506c-0.096-0.205-0.144-0.452-0.144-0.741
			c0-0.268,0.076-0.516,0.229-0.744c0.152-0.229,0.392-0.429,0.716-0.599s0.742-0.306,1.254-0.407s1.126-0.161,1.843-0.179v-0.662
			c0-0.585-0.126-1.036-0.379-1.353c-0.252-0.315-0.627-0.474-1.124-0.474c-0.305,0-0.565,0.042-0.779,0.127
			s-0.396,0.179-0.544,0.28s-0.27,0.195-0.362,0.28c-0.094,0.085-0.173,0.127-0.236,0.127c-0.085,0-0.148-0.038-0.19-0.114
			l-0.108-0.185c0.331-0.331,0.679-0.582,1.044-0.751c0.365-0.17,0.778-0.255,1.241-0.255c0.34,0,0.637,0.054,0.891,0.162
			c0.255,0.108,0.466,0.264,0.634,0.465c0.167,0.201,0.293,0.445,0.379,0.731c0.085,0.287,0.127,0.606,0.127,0.958v4.125H360.557z
			 M358.011,94.631c0.246,0,0.472-0.026,0.678-0.079s0.397-0.127,0.573-0.223s0.341-0.209,0.493-0.341
			c0.152-0.131,0.304-0.273,0.452-0.427v-1.648c-0.603,0.018-1.121,0.063-1.557,0.137c-0.435,0.075-0.793,0.176-1.075,0.303
			c-0.282,0.128-0.49,0.279-0.624,0.455s-0.2,0.377-0.2,0.602c0,0.212,0.035,0.396,0.104,0.551c0.07,0.154,0.163,0.282,0.277,0.382
			s0.248,0.173,0.401,0.22C357.687,94.607,357.846,94.631,358.011,94.631z"/>
		<path fill="#5B5B5F" d="M362.771,94.969v-9.261h0.604l0.007,4.035c0.28-0.373,0.604-0.669,0.974-0.885
			c0.369-0.217,0.785-0.324,1.248-0.324c0.776,0,1.382,0.268,1.817,0.805c0.435,0.537,0.652,1.344,0.652,2.422
			c0,0.462-0.061,0.894-0.182,1.295s-0.3,0.749-0.536,1.044c-0.235,0.295-0.524,0.527-0.866,0.697s-0.736,0.255-1.183,0.255
			c-0.441,0-0.822-0.086-1.141-0.259c-0.319-0.171-0.593-0.425-0.822-0.76l-0.038,0.776c-0.012,0.106-0.069,0.159-0.17,0.159
			H362.771z M365.43,89.018c-0.421,0-0.802,0.108-1.142,0.324c-0.34,0.217-0.644,0.518-0.912,0.904v3.342
			c0.243,0.364,0.511,0.62,0.804,0.767s0.632,0.22,1.014,0.22c0.374,0,0.701-0.068,0.982-0.204c0.279-0.136,0.515-0.328,0.704-0.576
			c0.188-0.248,0.331-0.545,0.427-0.891s0.144-0.727,0.144-1.143c0-0.942-0.175-1.635-0.522-2.078
			C366.579,89.239,366.079,89.018,365.43,89.018z"/>
		<path fill="#5B5B5F" d="M373.146,89.425c-0.029,0.06-0.076,0.089-0.14,0.089c-0.047,0-0.107-0.026-0.182-0.079
			c-0.074-0.054-0.172-0.112-0.293-0.179c-0.121-0.065-0.27-0.125-0.445-0.178s-0.392-0.08-0.646-0.08
			c-0.229,0-0.438,0.033-0.627,0.099c-0.188,0.065-0.35,0.153-0.483,0.264c-0.134,0.109-0.237,0.237-0.312,0.384
			s-0.111,0.3-0.111,0.46c0,0.199,0.051,0.364,0.152,0.495c0.102,0.132,0.235,0.243,0.4,0.337c0.166,0.093,0.354,0.174,0.563,0.241
			c0.211,0.067,0.426,0.136,0.646,0.203c0.221,0.068,0.436,0.144,0.646,0.227c0.21,0.082,0.398,0.186,0.563,0.309
			c0.166,0.123,0.3,0.273,0.401,0.451c0.102,0.179,0.152,0.395,0.152,0.649c0,0.276-0.05,0.532-0.149,0.771
			c-0.1,0.237-0.244,0.443-0.433,0.617s-0.422,0.313-0.696,0.414c-0.276,0.102-0.591,0.152-0.942,0.152
			c-0.445,0-0.83-0.071-1.152-0.213c-0.322-0.143-0.611-0.328-0.865-0.557l0.146-0.217c0.021-0.034,0.044-0.06,0.069-0.076
			c0.025-0.018,0.062-0.025,0.108-0.025c0.056,0,0.123,0.033,0.204,0.102c0.08,0.067,0.185,0.141,0.314,0.22
			c0.13,0.078,0.291,0.151,0.484,0.22c0.192,0.067,0.432,0.102,0.716,0.102c0.267,0,0.503-0.037,0.706-0.111
			c0.204-0.074,0.374-0.175,0.51-0.303c0.136-0.127,0.238-0.276,0.309-0.448c0.069-0.172,0.104-0.354,0.104-0.544
			c0-0.213-0.051-0.389-0.152-0.528c-0.102-0.141-0.235-0.259-0.401-0.357c-0.165-0.097-0.353-0.18-0.563-0.248
			c-0.21-0.067-0.427-0.136-0.65-0.203c-0.223-0.068-0.438-0.143-0.648-0.223c-0.21-0.081-0.398-0.183-0.563-0.306
			s-0.299-0.272-0.401-0.449c-0.102-0.176-0.152-0.396-0.152-0.658c0-0.225,0.049-0.441,0.146-0.649s0.236-0.391,0.417-0.548
			c0.181-0.156,0.399-0.282,0.658-0.375c0.259-0.094,0.55-0.14,0.872-0.14c0.387,0,0.729,0.056,1.028,0.167
			c0.299,0.112,0.574,0.283,0.824,0.514L373.146,89.425z"/>
	</g>
</g>
</svg>
