<?xml version="1.0" encoding="utf-8"?>
<!-- Generator: Adobe Illustrator 16.0.0, SVG Export Plug-In . SVG Version: 6.00 Build 0)  -->
<!DOCTYPE svg PUBLIC "-//W3C//DTD SVG 1.1//EN" "http://www.w3.org/Graphics/SVG/1.1/DTD/svg11.dtd">
<svg version="1.1" id="Capa_1" xmlns="http://www.w3.org/2000/svg" xmlns:xlink="http://www.w3.org/1999/xlink" x="0px" y="0px"
	 width="200px" height="200px" viewBox="156 156 200 200" enable-background="new 156 156 200 200" xml:space="preserve">
<g id="_x30_38---Global-Language">
	<path id="Shape" fill="#F4F4F4" d="M345.55,289.167h-9.95c12.001-28.804,7.506-61.843-11.754-86.393
		c-19.261-24.55-50.28-36.78-81.112-31.979v-4.345c0-5.495-4.455-9.95-9.95-9.95H166.45c-5.496,0-9.95,4.455-9.95,9.95v46.434
		c0,5.495,4.455,9.95,9.95,9.95h9.95c-12,28.804-7.505,61.843,11.755,86.393c19.26,24.55,50.28,36.779,81.112,31.979v4.345
		c0,5.495,4.455,9.95,9.95,9.95h66.333c5.495,0,9.95-4.455,9.95-9.95v-46.434C355.5,293.621,351.045,289.167,345.55,289.167z
		 M328.701,289.167h-28.623l-15.488-9.652c1.559-0.298-2.057-0.298,47.494-0.298C329.597,287.409,328.701,287.541,328.701,289.167
		L328.701,289.167z M334.937,246.05h-36.483c-2.189-0.009-4.287-0.887-5.83-2.442c-1.542-1.555-2.404-3.659-2.395-5.849
		c0-3.97-1.582-7.776-4.396-10.577s-6.627-4.366-10.597-4.348h-3.847c-4.58,0-8.292-3.712-8.292-8.292s3.712-8.292,8.292-8.292
		h19.236c7.372-0.028,13.604-5.468,14.626-12.769C321.725,206.376,332.402,225.285,334.937,246.05L334.937,246.05z M163.133,212.884
		V166.45c0-1.832,1.485-3.316,3.317-3.316h66.333c1.832,0,3.317,1.485,3.317,3.316v63.68l-21.459-13.433
		c-1.161-0.729,2.322-0.498-48.191-0.498c-0.88,0-1.723-0.349-2.346-0.971C163.483,214.607,163.133,213.763,163.133,212.884
		L163.133,212.884z M183.299,222.833h28.623l15.422,9.651c-1.559,0.432-0.829,0.299-17.512,0.299
		c-8.243,0-14.925,6.682-14.925,14.925c0,8.243,6.683,14.925,14.925,14.925h30.779c4.579,0,8.292,3.713,8.292,8.292
		s-3.712,8.292-8.292,8.292h-60.695C170.297,247.742,183.299,224.99,183.299,222.833L183.299,222.833z M182.237,285.85h58.374
		c8.243,0,14.925-6.682,14.925-14.925c0-8.242-6.682-14.925-14.925-14.925h-30.779c-4.579,0-8.292-3.712-8.292-8.292
		c0-4.579,3.712-8.292,8.292-8.292h15.389c3.114,0.073,6.15-0.975,8.557-2.952c4.08,2.587,4.411,2.952,5.639,2.952
		c1.832,0,3.316-1.485,3.316-3.316v-58.573c19.581-3.366,39.712,0.767,56.384,11.576c-0.133,0.733-0.199,1.477-0.199,2.222
		c0.009,2.202-0.862,4.316-2.419,5.873s-3.671,2.428-5.873,2.418H271.39c-8.243,0-14.925,6.683-14.925,14.925
		c0,8.243,6.682,14.925,14.925,14.925h3.847c4.554,0.036,8.226,3.738,8.226,8.292c0,8.217,6.642,14.888,14.859,14.925H335.6
		c0.349,6.678-0.209,13.372-1.658,19.899h-47.296c-3.073-0.079-6.073,0.944-8.457,2.886l-3.848-2.388
		c-1.022-0.64-2.313-0.673-3.368-0.087s-1.708,1.699-1.706,2.906v17.512c-1.509,1.522-3.562,2.382-5.704,2.388h-20.829
		c-8.243,0.421-14.583,7.445-14.162,15.688c0.421,8.243,7.445,14.584,15.688,14.162h3.848c2.19,0.009,4.287,0.888,5.83,2.442
		c1.542,1.556,2.404,3.659,2.395,5.85v1.658C223.785,335.724,194.442,316.022,182.237,285.85L182.237,285.85z M263.031,335.269
		v-1.327c0-8.217-6.642-14.889-14.858-14.925h-3.848c-4.579,0.247-8.492-3.265-8.739-7.844c-0.247-4.579,3.265-8.492,7.844-8.739
		h20.133c1.96,0.002,3.9-0.393,5.704-1.161v33.166C267.31,334.804,265.254,335.103,263.031,335.269z M348.867,345.55
		c0,1.832-1.485,3.316-3.317,3.316h-66.333c-1.832,0-3.316-1.484-3.316-3.316v-63.68c23.614,14.792,21.89,13.93,23.217,13.93h46.433
		c1.832,0,3.317,1.485,3.317,3.316V345.55z"/>
	<path id="Shape_1_" fill="#F4F4F4" d="M176.4,176.4h3.317c1.832,0,3.316-1.485,3.316-3.317c0-1.832-1.485-3.316-3.316-3.316H176.4
		c-1.832,0-3.316,1.485-3.316,3.316C173.083,174.915,174.568,176.4,176.4,176.4z"/>
	<path id="Shape_2_" fill="#F4F4F4" d="M192.983,176.4h29.85c1.832,0,3.316-1.485,3.316-3.317c0-1.832-1.485-3.316-3.316-3.316
		h-29.85c-1.832,0-3.317,1.485-3.317,3.316C189.667,174.915,191.151,176.4,192.983,176.4z"/>
	<path id="Shape_3_" fill="#F4F4F4" d="M176.4,192.984h33.167c1.832,0,3.317-1.485,3.317-3.317s-1.485-3.316-3.317-3.316H176.4
		c-1.832,0-3.316,1.485-3.316,3.316S174.568,192.984,176.4,192.984z"/>
	<path id="Shape_4_" fill="#F4F4F4" d="M226.15,206.25c0-1.832-1.485-3.316-3.316-3.316H176.4c-1.832,0-3.316,1.484-3.316,3.316
		s1.485,3.316,3.316,3.316h46.434C224.665,209.567,226.15,208.082,226.15,206.25z"/>
	<path id="Shape_5_" fill="#F4F4F4" d="M338.917,319.017H285.85c-1.831,0-3.316,1.484-3.316,3.316s1.485,3.316,3.316,3.316h53.067
		c1.831,0,3.316-1.484,3.316-3.316S340.748,319.017,338.917,319.017z"/>
	<path id="Shape_6_" fill="#F4F4F4" d="M292.483,332.283h-6.634c-1.831,0-3.316,1.485-3.316,3.316c0,1.832,1.485,3.317,3.316,3.317
		h6.634c1.831,0,3.316-1.485,3.316-3.317C295.8,333.769,294.314,332.283,292.483,332.283z"/>
	<path id="Shape_7_" fill="#F4F4F4" d="M338.917,332.283H305.75c-1.832,0-3.316,1.485-3.316,3.316c0,1.832,1.484,3.317,3.316,3.317
		h33.167c1.831,0,3.316-1.485,3.316-3.317C342.233,333.769,340.748,332.283,338.917,332.283z"/>
	<path id="Shape_8_" fill="#F4F4F4" d="M285.85,312.383h33.167c1.832,0,3.316-1.484,3.316-3.316s-1.484-3.316-3.316-3.316H285.85
		c-1.831,0-3.316,1.484-3.316,3.316S284.019,312.383,285.85,312.383z"/>
</g>
</svg>
