<?xml version="1.0" encoding="utf-8"?>
<!-- Generator: Adobe Illustrator 16.0.0, SVG Export Plug-In . SVG Version: 6.00 Build 0)  -->
<!DOCTYPE svg PUBLIC "-//W3C//DTD SVG 1.1//EN" "http://www.w3.org/Graphics/SVG/1.1/DTD/svg11.dtd">
<svg version="1.1" id="Capa_1" xmlns="http://www.w3.org/2000/svg" xmlns:xlink="http://www.w3.org/1999/xlink" x="0px" y="0px"
	 width="200px" height="200px" viewBox="140.5 140.5 200 200" enable-background="new 140.5 140.5 200 200" xml:space="preserve">
<path fill="#F4F4F4" d="M263.602,231.652c1.181,1.132,3.015,1.221,4.3,0.208l22.169-17.461l27.718,21.543l-14.185,1.012
	c-1.763,0.125-3.109,1.623-3.047,3.388c0.061,1.766,1.51,3.166,3.275,3.166c0.08,0,0.159-0.003,0.239-0.008l22.697-1.621
	c0.87-0.063,1.681-0.47,2.251-1.131s0.853-1.523,0.786-2.393l-1.621-21.077c-0.139-1.807-1.717-3.159-3.522-3.02
	c-1.808,0.139-3.159,1.715-3.02,3.522l1.051,13.663l-30.622-23.799c-1.19-0.926-2.859-0.921-4.044,0.012l-21.939,17.283
	l-21.18-20.315c-1.309-1.256-3.386-1.213-4.64,0.095c-1.256,1.309-1.212,3.386,0.095,4.642L263.602,231.652z"/>
<path fill="#F4F4F4" d="M336.218,320.823h-15.563v-38.654c0-1.812-1.608-3.175-3.421-3.175h-31.666
	c-1.812,0-3.462,1.363-3.462,3.175v38.654h-20.095v-68.261c0-1.813-1.578-3.095-3.39-3.095h-31.667
	c-0.83-0.034-1.635,0.281-2.222,0.869s-0.899,1.396-0.86,2.226v68.261h-20.504v-84.159c-0.021-0.868-0.388-1.693-1.018-2.292
	c-0.631-0.598-1.472-0.921-2.342-0.898h-31.667c-0.843-0.013-1.655,0.322-2.244,0.924c-0.588,0.604-0.904,1.424-0.868,2.267v84.159
	h-16.814V170.318c0-1.812-1.469-3.281-3.281-3.281s-3.281,1.469-3.281,3.281v153.607c0,1.813,1.488,3.46,3.3,3.46h191.064
	c1.813,0,3.281-1.467,3.281-3.28C339.499,322.292,338.03,320.823,336.218,320.823z M171.791,320.823v-80.789h25.016v80.789H171.791z
	 M230.434,320.823v-64.795h25.015v64.795H230.434z M288.667,320.823v-35.268h25.426v35.268H288.667z"/>
<path fill="#F4F4F4" d="M195.23,203.575c-0.157-0.024-0.315-0.037-0.474-0.038c-0.109,0-0.219,0.006-0.328,0.018
	c-3.335-0.319-5.884-3.121-5.889-6.472c0-1.812-1.469-3.281-3.28-3.281c-1.812,0-3.281,1.469-3.281,3.281
	c0.008,5.839,3.883,10.965,9.498,12.565v2.91c0,1.813,1.469,3.281,3.281,3.281c1.812,0,3.281-1.468,3.281-3.281v-2.763
	c6.454-1.52,10.746-7.636,9.979-14.222c-0.766-6.587-6.344-11.555-12.976-11.555c-3.591,0-6.502-2.911-6.502-6.502
	c0-3.591,2.911-6.502,6.502-6.502s6.502,2.912,6.502,6.503c0,1.812,1.469,3.281,3.281,3.281c1.812,0,3.28-1.469,3.28-3.281
	c-0.008-6.215-4.386-11.567-10.477-12.805v-3.005c0-1.812-1.469-3.281-3.281-3.281c-1.812,0-3.28,1.469-3.28,3.281v3.367
	c-6.134,1.958-9.927,8.093-8.936,14.456c0.992,6.361,6.472,11.053,12.91,11.051c3.551,0.001,6.443,2.853,6.496,6.403
	c0.052,3.552-2.757,6.486-6.305,6.592V203.575z"/>
<path fill="#F4F4F4" d="M195.04,227.937c22.316,0,40.407-18.09,40.407-40.405c0-22.317-18.091-40.407-40.407-40.407
	s-40.407,18.09-40.407,40.407C154.658,209.837,172.734,227.913,195.04,227.937z M195.04,153.686
	c18.693,0,33.846,15.152,33.846,33.846c0,18.691-15.153,33.844-33.846,33.844c-18.691,0-33.846-15.152-33.846-33.844
	C161.215,168.848,176.356,153.707,195.04,153.686z"/>
</svg>
