<?xml version="1.0" encoding="utf-8"?>
<!-- Generator: Adobe Illustrator 16.0.0, SVG Export Plug-In . SVG Version: 6.00 Build 0)  -->
<!DOCTYPE svg PUBLIC "-//W3C//DTD SVG 1.1//EN" "http://www.w3.org/Graphics/SVG/1.1/DTD/svg11.dtd">
<svg version="1.1" id="Capa_1" xmlns="http://www.w3.org/2000/svg" xmlns:xlink="http://www.w3.org/1999/xlink" x="0px" y="0px"
	 width="200px" height="200px" viewBox="183.465 296.85 200 200" enable-background="new 183.465 296.85 200 200"
	 xml:space="preserve">
<g>
	<g>
		<path fill="#F4F4F4" d="M379.927,323.341c0.064-6.157-2.3-11.946-6.653-16.3c-4.298-4.297-9.992-6.655-16.06-6.655
			c-0.08,0-0.16,0-0.241,0.001c-6.158,0.063-11.896,2.545-16.16,6.988l-33.769,35.188l-88.363-29.242l-26.096,26.096l73.844,45.468
			l-30.384,31.662l-23.848-3.914L187,437.828l41.093,14.394l14.393,41.093l25.198-25.198l-3.915-23.848l31.662-30.385l45.468,73.845
			l26.097-26.095l-29.243-88.363l35.188-33.769C377.383,335.238,379.863,329.499,379.927,323.341z M365.105,331.338l-40.34,38.712
			l29.294,88.516l-11.035,11.035l-45.311-73.59l-46.076,44.216l3.939,23.994l-8.362,8.362l-10.242-29.241L207.731,433.1l8.362-8.362
			l23.994,3.939l44.217-46.075l-73.59-45.311l11.035-11.035l88.517,29.293l38.712-40.339c2.139-2.23,5.021-3.476,8.112-3.508
			c0.04,0,0.081,0,0.12,0c3.047,0,5.905,1.183,8.063,3.341c2.186,2.186,3.371,5.092,3.339,8.183
			C368.582,326.316,367.335,329.197,365.105,331.338z"/>
	</g>
</g>
</svg>
