<?xml version="1.0" encoding="utf-8"?>
<!-- Generator: Adobe Illustrator 16.0.0, SVG Export Plug-In . SVG Version: 6.00 Build 0)  -->
<!DOCTYPE svg PUBLIC "-//W3C//DTD SVG 1.1//EN" "http://www.w3.org/Graphics/SVG/1.1/DTD/svg11.dtd">
<svg version="1.1" id="Layer_1_1_" xmlns="http://www.w3.org/2000/svg" xmlns:xlink="http://www.w3.org/1999/xlink" x="0px" y="0px"
	 width="512px" height="512px" viewBox="0 0 512 512" enable-background="new 0 0 512 512" xml:space="preserve">
<g>
	<g>
		<path fill="#B5E5F7" d="M472,184H328V88h144V184z"/>
	</g>
	<g>
		<rect x="40" y="184" fill="#B5E5F7" width="256" height="96"/>
	</g>
	<g>
		<path fill="#B5E5F7" d="M152,376H40v-80h112V376z"/>
	</g>
	<g>
		<path fill="#F4F4F4" d="M464,8H336c-22.056,0-40,17.943-40,40v104H48c-22.056,0-40,17.943-40,40v224c0,22.056,17.944,40,40,40h104
			v32h-32v16h208v-16h-32v-32h104c22.056,0,40-17.944,40-40v-40h24c22.056,0,40-17.944,40-40V48C504,25.944,486.056,8,464,8z
			 M336,24h128c13.232,0,24,10.768,24,24v8H312v-8C312,34.768,322.768,24,336,24z M488,72v224H312V72H488z M280,488H168v-32h112V488
			z M400,440H48c-13.232,0-24-10.769-24-24v-8h400v8C424,429.232,413.232,440,400,440z M424,392H24V192c0-13.232,10.768-24,24-24
			h248v168c0,22.056,17.944,40,40,40h88V392z M464,360H336c-13.232,0-24-10.769-24-24v-24h176v24C488,349.232,477.232,360,464,360z"
			/>
		<rect x="376" y="328" fill="#F4F4F4" width="48" height="16"/>
		<rect x="456" y="264" fill="#F4F4F4" width="16" height="16"/>
		<rect x="328" y="264" fill="#F4F4F4" width="112" height="16"/>
		<rect x="328" y="232" fill="#F4F4F4" width="144" height="16"/>
		<rect x="328" y="200" fill="#F4F4F4" width="144" height="16"/>
		<rect x="168" y="296" fill="#F4F4F4" width="112" height="16"/>
		<rect x="168" y="328" fill="#F4F4F4" width="112" height="16"/>
		<rect x="168" y="360" fill="#F4F4F4" width="80" height="16"/>
		<rect x="264" y="360" fill="#F4F4F4" width="16" height="16"/>
	</g>
</g>
</svg>
