<?xml version="1.0" encoding="utf-8"?>
<!-- Generator: Adobe Illustrator 16.0.0, SVG Export Plug-In . SVG Version: 6.00 Build 0)  -->
<!DOCTYPE svg PUBLIC "-//W3C//DTD SVG 1.1//EN" "http://www.w3.org/Graphics/SVG/1.1/DTD/svg11.dtd">
<svg version="1.1" id="Capa_1" xmlns="http://www.w3.org/2000/svg" xmlns:xlink="http://www.w3.org/1999/xlink" x="0px" y="0px"
	 width="512px" height="512px" viewBox="27.465 146.85 512 512" enable-background="new 27.465 146.85 512 512"
	 xml:space="preserve">
<g>
	<circle fill="#B5E5F7" cx="341.688" cy="271.77" r="40.909"/>
</g>
<g>
	<polygon fill="#F4F4F4" points="139.543,233.259 116.691,256.111 93.839,233.259 82.27,244.828 105.122,267.68 82.27,290.531 
		93.839,302.1 116.691,279.249 139.543,302.1 151.112,290.531 128.26,267.68 151.112,244.828 	"/>
	<polygon fill="#F4F4F4" points="241.111,424.825 229.542,413.256 206.69,436.107 183.838,413.256 172.27,424.825 195.121,447.677 
		172.27,470.528 183.838,482.098 206.69,459.245 229.542,482.098 241.111,470.528 218.259,447.677 	"/>
</g>
<g>
	<path fill="#F4F4F4" d="M308.961,390.634v23.661c-4.687,5.286-7.757,11.929-8.14,19.367c-0.459,8.852,2.603,17.237,8.542,23.751
		c-4.723,14.089-14.114,26.387-26.469,34.625l-13.229,8.82l14.333,9.557c14.711,9.802,31.835,14.987,49.507,14.987V509.04
		c-12.1,0-23.89-2.979-34.468-8.664c10.848-9.042,19.161-20.873,24.299-34.052c1.448,0.475,2.888,0.932,4.395,1.209
		c1.626,4.002,4.032,7.691,7.183,10.842l31.654,31.664c4.639,4.629,10.809,7.183,17.354,7.183h30.076
		c6.545,0,12.713-2.554,17.36-7.192l31.647-31.654c3.148-3.15,5.556-6.832,7.185-10.842c1.504-0.27,2.944-0.728,4.394-1.209
		c5.138,13.179,13.45,25.01,24.299,34.052c-10.579,5.686-22.37,8.664-34.469,8.664v16.362c17.671,0,34.797-5.186,49.507-14.987
		l14.334-9.557l-13.23-8.82c-12.354-8.238-21.746-20.536-26.467-34.625c5.938-6.514,9-14.899,8.541-23.76
		c-0.392-7.43-3.461-14.072-8.141-19.358v-52.526c0-16.322-12.011-29.888-27.662-32.342c-12.076-20.536-33.896-33.111-58.017-33.111
		C351.277,296.316,308.961,338.623,308.961,390.634z M317.168,434.521c0.278-5.344,3.501-10.056,8.157-12.838V449.5
		c-1.325-0.776-2.594-1.668-3.683-2.821C318.518,443.381,316.931,439.061,317.168,434.521z M451.438,466.806l-31.639,31.646
		c-1.563,1.557-3.624,2.407-5.8,2.407h-30.076c-2.185,0-4.246-0.851-5.792-2.397l-31.648-31.655
		c-3.094-3.092-4.795-7.199-4.795-11.569V419.04h44.142c17.213,0,33.413-6.938,45.196-18.972l1.905,2.871
		c5.441,8.165,13.868,13.598,23.303,15.397v36.899C456.232,459.607,454.531,463.714,451.438,466.806z M476.277,446.67
		c-1.097,1.153-2.356,2.046-3.682,2.824v-27.817c4.655,2.78,7.878,7.493,8.157,12.828
		C480.99,439.061,479.402,443.381,476.277,446.67z M403.28,312.679c19.456,0,36.933,10.809,45.621,28.202l2.267,4.524h5.057
		c9.032,0,16.371,7.339,16.371,16.364v42.356c-3.061-0.85-6.226-1.448-9.573-1.448c-6.634,0-12.786-3.296-16.478-8.819
		l-14.857-22.295l-6.807,10.219c-8.723,13.083-23.327,20.896-39.052,20.896h-50.933c-3.345,0-6.511,0.599-9.571,1.458v-13.493
		C325.325,347.647,360.293,312.679,403.28,312.679z"/>
	<path fill="#F4F4F4" d="M527.822,583.681c-3.551-22.171-18.548-40.376-38.773-47.364l-40.997-16.452v-2.643h-16.364v6.651
		l-32.727,85.099l-32.729-85.099v-6.651H349.87v2.65l-40.631,16.299c-20.601,7.134-35.599,25.339-39.141,47.51l-11.643,72.63
		h281.009L527.822,583.681z M286.257,586.267c2.586-16.199,13.459-29.478,28.71-34.772l38.43-15.405l34.313,89.213l-37.137-37.136
		l7.323-36.615l-16.045-3.215l-9.041,45.204l46.398,46.407h-56.871l2.954-31.975l-16.297-1.505l-3.094,33.479H277.65
		L286.257,586.267z M492.019,639.948l-3.092-33.479l-16.298,1.505l2.953,31.975h-56.871l46.407-46.398l-9.04-45.204l-16.045,3.216
		l7.322,36.613l-37.138,37.136l34.315-89.214l38.797,15.555c14.883,5.154,25.747,18.426,28.342,34.625l8.599,53.672H492.019z"/>
	<path fill="#D1D1D1" d="M227.144,592.019v-33.888h32.728v-16.364H55.328V509.04h204.543v-16.364H55.328V214.498h327.27v65.454
		h16.363V149.044H38.965v409.087h171.816v33.888c-14.081,3.657-24.546,16.355-24.546,31.565c0,18.049,14.678,32.727,32.727,32.727
		c18.049,0,32.727-14.678,32.727-32.727C251.689,608.374,241.225,595.676,227.144,592.019z M382.598,165.408v32.727H55.328v-32.727
		H382.598z M218.962,639.948c-9.024,0-16.363-7.339-16.363-16.363c0-9.025,7.339-16.363,16.363-16.363
		c9.025,0,16.364,7.338,16.364,16.363C235.326,632.609,227.987,639.948,218.962,639.948z"/>
	<path fill="#D1D1D1" d="M266.261,325.975l39.044-48.813l-58.14-29.07l-7.323,14.637l27.924,13.958
		c-48.321,12.681-155.543,56.332-187.697,197.81l15.963,3.624c16.379-72.081,54.441-125.933,113.128-160.059
		c24.292-14.129,47.274-21.764,63.09-25.789l-18.777,23.473L266.261,325.975z"/>
	<path fill="#F4F4F4" d="M366.232,271.77c0-13.532-11.012-24.545-24.545-24.545c-13.532,0-24.545,11.013-24.545,24.545
		c0,13.533,11.013,24.546,24.545,24.546C355.221,296.316,366.232,285.303,366.232,271.77z M333.506,271.77
		c0-4.508,3.666-8.181,8.182-8.181c4.517,0,8.183,3.673,8.183,8.181c0,4.509-3.666,8.183-8.183,8.183
		C337.172,279.952,333.506,276.279,333.506,271.77z"/>
</g>
</svg>
