<?xml version="1.0" encoding="utf-8"?>
<!-- Generator: Adobe Illustrator 16.0.0, SVG Export Plug-In . SVG Version: 6.00 Build 0)  -->
<!DOCTYPE svg PUBLIC "-//W3C//DTD SVG 1.1//EN" "http://www.w3.org/Graphics/SVG/1.1/DTD/svg11.dtd">
<svg version="1.1" id="Layer_1" xmlns="http://www.w3.org/2000/svg" xmlns:xlink="http://www.w3.org/1999/xlink" x="0px" y="0px"
	 width="200px" height="200px" viewBox="183.465 296.85 200 200" enable-background="new 183.465 296.85 200 200"
	 xml:space="preserve">
<g>
	<g>
		<path fill="#F4F4F4" d="M361.03,389.423c-6.904-3.452-19.85-3.492-20.397-3.492c-1.642,0-2.973,1.331-2.973,2.972
			c0,1.642,1.331,2.972,2.973,2.972c3.341,0,13.04,0.515,17.739,2.865c0.427,0.214,0.88,0.314,1.327,0.314
			c1.09,0,2.14-0.603,2.66-1.644C363.094,391.943,362.499,390.157,361.03,389.423z"/>
	</g>
</g>
<g>
	<g>
		<path fill="#F4F4F4" d="M374.199,429.162l-11.985-3.425c-0.519-0.147-0.88-0.626-0.88-1.165v-4.001
			c0.975-0.676,1.905-1.432,2.774-2.274c4.215-4.091,6.534-9.576,6.534-15.448v-5.52l1.159-2.317
			c1.271-2.544,1.945-5.393,1.945-8.237v-14.956c0-1.603-1.3-2.903-2.903-2.903h-27.93c-10.154,0-18.416,8.263-18.416,18.418v0.173
			c0,2.365,0.559,4.734,1.615,6.849l1.486,2.973v4.739c0,7.514,3.703,14.254,9.311,18.31v4.193c0,0.647,0,0.914-2.396,1.6
			l-5.849,1.671l-16.918-6.152c0.06-0.798-0.209-1.611-0.792-2.222l-5.405-5.68v-9.535c0.57-0.471,1.135-0.954,1.68-1.466
			c6.821-6.394,10.732-15.419,10.732-24.762v-7.615c2.059-4.482,3.104-9.224,3.104-14.107v-31.032c0-1.603-1.3-2.902-2.901-2.902
			H274.72c-15.29,0-27.728,12.438-27.728,27.728v6.206c0,4.884,1.043,9.626,3.104,14.107v6.552c0,10.849,4.823,20.622,12.413,27.066
			v9.76l-5.407,5.679c-0.582,0.611-0.852,1.424-0.791,2.222l-17.856,6.493c-1.294,0.471-2.497,1.109-3.587,1.88l-2.804-1.401
			c8.347-3.633,10.991-8.743,11.117-8.997c0.409-0.817,0.409-1.779,0-2.596c-2.092-4.185-2.346-11.854-2.549-18.018
			c-0.068-2.052-0.132-3.99-0.254-5.716c-0.99-13.92-11.573-24.419-24.617-24.419c-13.045,0-23.628,10.498-24.617,24.419
			c-0.122,1.727-0.187,3.665-0.254,5.717c-0.204,6.163-0.458,13.832-2.549,18.016c-0.409,0.817-0.409,1.779,0,2.596
			c0.127,0.254,2.766,5.354,11.129,8.991l-7.788,3.895c-4.165,2.083-6.75,6.268-6.75,10.922v21.442c0,1.604,1.299,2.902,2.902,2.902
			c1.604,0,2.902-1.299,2.902-2.902v-21.442c0-2.442,1.357-4.638,3.542-5.729l9.698-4.849l3.373,3.205
			c2.359,2.241,5.385,3.362,8.413,3.362c3.026,0,6.054-1.122,8.412-3.362l3.373-3.205l3.162,1.581
			c-1.489,2.383-2.334,5.176-2.334,8.103v22.337c0,1.604,1.299,2.903,2.902,2.903c1.603,0,2.902-1.3,2.902-2.903v-22.337
			c0-3.984,2.516-7.575,6.26-8.938l18.827-6.846l7.837,11.755c1.002,1.504,2.608,2.468,4.405,2.646c0.2,0.021,0.4,0.03,0.599,0.03
			c1.585,0,3.105-0.625,4.24-1.76l4.782-4.782v30.231c0,1.604,1.299,2.902,2.902,2.902c1.604,0,2.903-1.299,2.903-2.902v-30.231
			l4.78,4.782c1.135,1.136,2.653,1.76,4.24,1.76c0.198,0,0.398-0.01,0.598-0.03c1.799-0.178,3.404-1.142,4.406-2.646l7.836-11.754
			l18.827,6.846c3.745,1.362,6.261,4.953,6.261,8.938v22.336c0,1.604,1.299,2.903,2.902,2.903c1.603,0,2.902-1.3,2.902-2.903
			v-22.336c0-4.036-1.604-7.82-4.293-10.62l0.718-0.203c0.722-0.207,1.709-0.49,2.7-0.977l7.41,7.411v26.725
			c0,1.604,1.299,2.903,2.902,2.903c1.603,0,2.903-1.3,2.903-2.903V438.19l7.357-7.359c0.392,0.199,0.802,0.366,1.235,0.49
			l11.986,3.425c2.736,0.781,4.647,3.314,4.647,6.161v24.008c0,1.604,1.299,2.903,2.902,2.903c1.602,0,2.901-1.3,2.901-2.903
			v-24.008C383.056,435.482,379.414,430.653,374.199,429.162z M203.548,424.036c-5.429-1.953-8.152-4.558-9.314-5.98
			c0.792-2.071,1.307-4.444,1.654-6.949c1.601,3.838,4.282,7.114,7.66,9.451V424.036z M220.174,431.891
			c-2.476,2.353-6.354,2.352-8.829,0l-2.698-2.565c0.455-0.854,0.705-1.819,0.705-2.833v-3.095c2.025,0.633,4.177,0.975,6.408,0.975
			c2.228,0,4.379-0.343,6.407-0.972v3.09c0,1.016,0.25,1.982,0.706,2.836L220.174,431.891z M215.761,418.569
			c-8.667,0-15.717-7.052-15.717-15.719c0-1.603-1.3-2.901-2.902-2.901c-0.163,0-0.321,0.017-0.476,0.043
			c0.009-0.25,0.016-0.5,0.025-0.747c0.064-1.996,0.127-3.88,0.242-5.497c0.37-5.215,2.454-10.021,5.868-13.532
			c3.442-3.542,8.045-5.494,12.959-5.494c4.914,0,9.516,1.952,12.959,5.494c3.414,3.511,5.497,8.317,5.868,13.532
			c0.115,1.617,0.177,3.5,0.244,5.496c0.005,0.171,0.011,0.346,0.017,0.518c-3.157-4.865-8.034-8.45-14.335-10.475
			c-5.822-1.871-10.828-1.754-11.039-1.749c-0.76,0.021-1.481,0.339-2.008,0.886l-5.236,5.431c-1.113,1.154-1.08,2.991,0.074,4.104
			c1.154,1.111,2.991,1.078,4.104-0.075l4.357-4.519c3.752,0.184,15.824,1.587,20.52,11.925
			C230.103,412.909,223.555,418.569,215.761,418.569z M227.971,424.045v-3.461c3.376-2.324,6.061-5.595,7.663-9.46
			c0.347,2.499,0.861,4.866,1.652,6.933C236.13,419.466,233.394,422.093,227.971,424.045z M255.9,376.963v-7.201
			c0-0.438-0.099-0.869-0.289-1.262c-1.867-3.868-2.814-7.971-2.814-12.196v-6.206c0-12.089,9.835-21.923,21.923-21.923h40.542
			v28.129c0,4.226-0.947,8.328-2.814,12.196c-0.189,0.393-0.289,0.825-0.289,1.262v8.263c0,7.86-3.159,15.149-8.896,20.527
			c-0.716,0.671-1.459,1.3-2.229,1.887c-0.018,0.011-0.033,0.023-0.049,0.035c-5.375,4.082-11.958,6.064-18.833,5.618
			C267.431,405.141,255.9,392.344,255.9,376.963z M272.241,435.36c-0.02,0.02-0.066,0.067-0.162,0.058
			c-0.094-0.009-0.131-0.065-0.147-0.09l-9.026-13.537l2.904-3.053l13.693,9.359L272.241,435.36z M284.029,424.159l-15.717-10.742
			v-5.418c4.067,2.199,8.621,3.572,13.463,3.886c0.766,0.051,1.526,0.075,2.284,0.075c5.55,0,10.891-1.327,15.687-3.845v5.302
			L284.029,424.159z M296.126,435.329c-0.015,0.023-0.052,0.079-0.146,0.089c-0.095,0.012-0.142-0.039-0.162-0.058l-7.263-7.263
			l13.693-9.36l2.904,3.053L296.126,435.329z M349.122,432.881l-6.586-6.587c0.113-0.521,0.18-1.093,0.179-1.723v-1.226
			c1.828,0.6,3.754,0.957,5.747,1.016c0.225,0.007,0.445,0.011,0.669,0.011c2.202,0,4.352-0.333,6.398-0.968v1.168
			c0,0.578,0.072,1.146,0.211,1.691L349.122,432.881z M360.066,414.13c-3.076,2.985-7.141,4.562-11.431,4.431
			c-8.398-0.253-15.23-7.65-15.23-16.491v-5.425c0-0.451-0.104-0.895-0.307-1.298l-1.793-3.585
			c-0.656-1.314-1.004-2.784-1.004-4.253v-0.173c0-6.956,5.658-12.613,12.612-12.613h25.027v12.055c0,1.947-0.46,3.897-1.331,5.64
			l-1.465,2.93c-0.202,0.404-0.307,0.848-0.307,1.298v6.205C364.839,407.137,363.143,411.144,360.066,414.13z"/>
	</g>
</g>
<g>
	<g>
		<path fill="#F4F4F4" d="M369.235,446.315c-1.642,0-2.973,1.331-2.973,2.972v19.069c0,1.642,1.331,2.972,2.973,2.972
			s2.973-1.33,2.973-2.972v-19.069C372.208,447.646,370.877,446.315,369.235,446.315z"/>
	</g>
</g>
<g>
	<g>
		<path fill="#F4F4F4" d="M197.694,450.243c-1.642,0-2.972,1.331-2.972,2.973v15.14c0,1.642,1.331,2.972,2.972,2.972
			s2.972-1.33,2.972-2.972v-15.14C200.667,451.574,199.336,450.243,197.694,450.243z"/>
	</g>
</g>
<g>
	<g>
		<path fill="#F4F4F4" d="M307.851,358.199c-11.241-11.242-34.762-9.093-44.354-7.646c-3.021,0.455-5.213,3.012-5.213,6.079v6.848
			c0,1.641,1.331,2.972,2.973,2.972c1.641,0,2.972-1.331,2.972-2.972v-6.848c0-0.101,0.066-0.187,0.155-0.201
			c3.831-0.578,11.434-1.468,19.31-0.943c9.27,0.617,15.982,2.944,19.954,6.916c1.161,1.161,3.043,1.161,4.203,0
			C309.012,361.242,309.012,359.36,307.851,358.199z"/>
	</g>
</g>
<g>
	<g>
		<path fill="#F4F4F4" d="M248.543,452.671c-1.641,0-2.972,1.331-2.972,2.972v12.713c0,1.642,1.331,2.973,2.972,2.973
			c1.642,0,2.973-1.331,2.973-2.973v-12.713C251.516,454.002,250.185,452.671,248.543,452.671z"/>
	</g>
</g>
<g>
	<g>
		<path fill="#F4F4F4" d="M318.462,452.671c-1.642,0-2.973,1.331-2.973,2.972v12.713c0,1.642,1.331,2.973,2.973,2.973
			c1.641,0,2.972-1.331,2.972-2.973v-12.713C321.434,454.002,320.103,452.671,318.462,452.671z"/>
	</g>
</g>
</svg>
