<?xml version="1.0" encoding="utf-8"?>
<!-- Generator: Adobe Illustrator 16.0.0, SVG Export Plug-In . SVG Version: 6.00 Build 0)  -->
<!DOCTYPE svg PUBLIC "-//W3C//DTD SVG 1.1//EN" "http://www.w3.org/Graphics/SVG/1.1/DTD/svg11.dtd">
<svg version="1.1" id="Capa_1" xmlns="http://www.w3.org/2000/svg" xmlns:xlink="http://www.w3.org/1999/xlink" x="0px" y="0px"
	 width="200px" height="200px" viewBox="183.465 296.85 200 200" enable-background="new 183.465 296.85 200 200"
	 xml:space="preserve">
<g>
	<g>
		<path fill="#F4F4F4" d="M283.5,299.906c-38.798-0.006-73.863,23.121-89.134,58.787l-1.208,0.4l0.468,1.406
			c-20.106,49.59,3.794,106.089,53.384,126.195c11.582,4.696,23.963,7.107,36.461,7.101c53.541,0.008,96.951-43.39,96.959-96.93
			C380.438,343.324,337.041,299.913,283.5,299.906z M359.541,445.728l-4.978-4.975v-11.588c0.006-0.5-0.105-0.995-0.323-1.444
			l-12.604-25.171v-12.163c0-1.08-0.539-2.089-1.438-2.688l-9.694-6.463c-0.76-0.507-1.699-0.669-2.585-0.446l-11.873,2.966
			l-19.941-8.557l-2.743-19.221l7.604-7.601h16.322l5.493,8.256c0.496,0.743,1.278,1.247,2.159,1.393l19.389,3.231
			c0.52,0.087,1.052,0.045,1.551-0.123l17.857-5.953C378.715,383.926,377.113,418.494,359.541,445.728z M346.213,331.749
			l-5.254,3.503l-14.648-2.931l-9.504-3.164c-0.582-0.197-1.208-0.222-1.803-0.071l-12.016,3.002l-5.267-1.755l3.903-7.807h10.929
			c0.502,0,0.996-0.116,1.444-0.339l11.182-5.59C332.879,320.615,339.963,325.718,346.213,331.749z M248.076,313.585l7.755,5.17
			c0.381,0.253,0.812,0.423,1.264,0.497l15.66,2.611l-1.528,4.573l-8.16,2.724c-0.73,0.243-1.351,0.739-1.748,1.399l-9.281,15.466
			l-14.907,8.945l-21.974,3.138c-1.593,0.225-2.777,1.587-2.779,3.196v9.694c0,0.857,0.341,1.679,0.947,2.285l5.516,5.516v5.552
			l-13.443-8.964l-4.876-14.628C209.799,339.559,226.804,322.691,248.076,313.585z M238.876,419.535l-14.606-2.925l-5.429-10.828
			v-7.595l12.041-12.04l4.456,8.916c0.547,1.095,1.667,1.787,2.893,1.787h20.791l8.754,14.59c0.584,0.972,1.635,1.566,2.769,1.567
			h8.984l-2.262,11.332l-12.234,12.234c-0.607,0.605-0.949,1.428-0.95,2.285v8.079l-11.633,8.725
			c-0.813,0.61-1.292,1.567-1.292,2.585v11.672l-4.02-1.331l-5.674-14.192v-31.694C241.461,421.166,240.381,419.842,238.876,419.535
			z M229.162,469.211c-30.468-22.857-43.354-62.354-32.228-98.782l2.686,8.053c0.226,0.681,0.673,1.268,1.27,1.667l16.109,10.738
			l-3.674,3.678c-0.606,0.606-0.947,1.427-0.947,2.285v9.695c0,0.501,0.116,0.995,0.339,1.444l6.463,12.926
			c0.448,0.893,1.282,1.528,2.262,1.722l13.572,2.712v29.668c0,0.41,0.077,0.817,0.229,1.199l6.463,16.157
			c0.354,0.883,1.078,1.564,1.981,1.864l9.694,3.231c0.324,0.11,0.663,0.167,1.005,0.168c1.785,0,3.231-1.446,3.231-3.231v-14.541
			l11.633-8.726c0.813-0.61,1.292-1.568,1.292-2.585v-8.356l11.979-11.979c0.45-0.451,0.757-1.025,0.882-1.651l3.232-16.157
			c0.35-1.75-0.786-3.452-2.536-3.802c-0.208-0.042-0.419-0.063-0.631-0.063h-11.097l-8.754-14.59
			c-0.584-0.973-1.635-1.567-2.77-1.567h-20.623l-5.552-11.139c-0.465-0.93-1.349-1.58-2.375-1.745
			c-1.026-0.177-2.074,0.161-2.802,0.905l-4.195,4.179v-5.125c0-0.857-0.341-1.679-0.947-2.285l-5.516-5.516v-5.555l19.848-2.834
			c0.426-0.062,0.836-0.208,1.206-0.43l16.157-9.694c0.454-0.272,0.833-0.652,1.105-1.105l9.08-15.133l8.561-2.857
			c0.966-0.317,1.725-1.075,2.042-2.042l3.231-9.695c0.56-1.694-0.36-3.522-2.055-4.082c-0.156-0.052-0.316-0.091-0.479-0.119
			l-18.704-3.118l-3.286-2.191c20.335-6.619,42.36-5.8,62.148,2.311l-5.904,2.947h-12.163c-1.23-0.007-2.358,0.686-2.908,1.787
			l-6.463,12.926c-0.796,1.597-0.146,3.538,1.45,4.334c0.136,0.068,0.276,0.126,0.421,0.174l9.694,3.231
			c0.581,0.198,1.208,0.223,1.803,0.071l12.015-3.001l8.803,2.931c0.126,0.045,0.256,0.08,0.388,0.104l16.157,3.231
			c0.841,0.171,1.715-0.001,2.428-0.478l7.354-4.905c3.62,4.031,6.872,8.378,9.721,12.987l-15.899,5.299l-17.214-2.87l-5.688-8.531
			c-0.596-0.894-1.598-1.433-2.673-1.438h-19.389c-0.857,0-1.679,0.341-2.284,0.947l-9.695,9.694
			c-0.72,0.72-1.059,1.737-0.914,2.744l3.231,22.621c0.163,1.119,0.898,2.071,1.938,2.511l22.621,9.695
			c0.647,0.281,1.371,0.338,2.055,0.165l11.54-2.886l7.054,4.711v11.197c-0.005,0.5,0.105,0.995,0.324,1.444l12.603,25.171v12.163
			c0,0.857,0.341,1.679,0.946,2.284l6.761,6.764C325.826,491.102,269.125,499.194,229.162,469.211z"/>
	</g>
</g>
</svg>
